Coordinates
version=1
nRows=17
nColumns=24
inDegrees=yes

Units are S.I. units (second, meters, Newtons, ...)
Angles are in degrees.

endheader
time	pelvis_tilt	pelvis_list	pelvis_rotation	pelvis_tx	pelvis_ty	pelvis_tz	hip_flexion_r	hip_adduction_r	hip_rotation_r	knee_angle_r	ankle_angle_r	subtalar_angle_r	mtp_angle_r	hip_flexion_l	hip_adduction_l	hip_rotation_l	knee_angle_l	ankle_angle_l	subtalar_angle_l	mtp_angle_l	lumbar_extension	lumbar_bending	lumbar_rotation
      1.58500000	      5.69748810	     -9.49793266	      7.08660925	      0.55343936	      0.91498984	      0.00373934	     -0.44062136	     15.05265065	     -7.34844083	    -13.88797467	     17.94560614	     -4.84625639	     26.11223969	     15.72610122	     -8.72701885	      4.71353180	    -67.83935797	     16.99137827	     -3.19528056	     27.30154923	    -16.83816233	      8.68205182	     -5.16744644
      1.59000000	      5.82989225	     -9.36646073	      7.06651428	      0.56132123	      0.91584802	      0.00354851	     -1.57780812	     15.06912098	     -6.76119020	    -13.09159158	     17.84888172	     -5.27245523	     25.85605008	     16.24062970	     -8.49454437	      4.60620111	    -66.97381264	     17.22520501	     -3.40335266	     27.23591454	    -16.98501226	      8.56136618	     -5.13805717
      1.59500000	      5.95965746	     -9.22845017	      7.04426710	      0.56918468	      0.91664053	      0.00337202	     -2.70923938	     15.06918307	     -6.18795220	    -12.30140033	     17.73424581	     -5.69334747	     25.63450034	     16.72072396	     -8.25875267	      4.49778065	    -66.00380196	     17.43447964	     -3.60109498	     27.16681243	    -17.13182778	      8.42758237	     -5.11994263
      1.60000000	      6.08658531	     -9.08833062	      7.00273799	      0.57705057	      0.91737710	      0.00319536	     -3.84310834	     15.05384920	     -5.61281904	    -11.50623829	     17.59677792	     -6.11647627	     25.43843527	     17.16017441	     -8.02915282	      4.36575051	    -64.93001407	     17.60854298	     -3.77963155	     27.09073262	    -17.27768050	      8.29051536	     -5.09091151
      1.60500000	      6.21743205	     -8.95587159	      6.94494573	      0.58488516	      0.91804474	      0.00303543	     -4.97429683	     15.03404092	     -5.04334478	    -10.72466048	     17.45228987	     -6.51538834	     25.26910204	     17.55914373	     -7.81752220	      4.22201975	    -63.76111168	     17.75864659	     -3.92447976	     27.00487158	    -17.43306691	      8.15815405	     -5.04308250
      1.61000000	      6.32464524	     -8.81656523	      6.86642502	      0.59272660	      0.91863342	      0.00290740	     -6.07330584	     14.99056516	     -4.51214719	     -9.96220423	     17.28945961	     -6.88775663	     25.13805154	     17.93622764	     -7.60730876	      4.05403637	    -62.48534240	     17.88131875	     -4.05611549	     26.91372254	    -17.56376146	      8.00874253	     -5.00489543
      1.61500000	      6.42905813	     -8.69592747	      6.76987943	      0.60052454	      0.91914559	      0.00278072	     -7.15777999	     14.94981493	     -3.97727223	     -9.21916776	     17.13415357	     -7.20918309	     25.04599268	     18.28477742	     -7.42118574	      3.88866528	    -61.12539773	     17.97982789	     -4.14901517	     26.81201123	    -17.69604719	      7.87699003	     -4.91876396
      1.62000000	      6.52768490	     -8.58424813	      6.65746112	      0.60830255	      0.91957227	      0.00267816	     -8.22056690	     14.90314083	     -3.49364991	     -8.50278546	     16.97070350	     -7.48698140	     24.99483519	     18.60226157	     -7.25850870	      3.70107424	    -59.67395820	     18.06066868	     -4.21820208	     26.70203670	    -17.82642958	      7.75076498	     -4.83270483
      1.62500000	      6.60465223	     -8.47092275	      6.51586120	      0.61607158	      0.91993144	      0.00261884	     -9.24556005	     14.83666802	     -3.04624483	     -7.81888550	     16.80816877	     -7.70761370	     24.98651980	     18.89368406	     -7.10509929	      3.49100320	    -58.11955646	     18.11131598	     -4.27051251	     26.58706598	    -17.93703895	      7.61029604	     -4.72749805
      1.63000000	      6.67326848	     -8.37255308	      6.35686827	      0.62381692	      0.92020429	      0.00257750	    -10.24098348	     14.76963478	     -2.64445971	     -7.17066783	     16.64854731	     -7.86728011	     25.01834101	     19.15778963	     -6.97956306	      3.26450077	    -56.47961839	     18.14155306	     -4.29563389	     26.47349253	    -18.04202620	      7.48187251	     -4.60063021
      1.63500000	      6.73496350	     -8.28736086	      6.17699559	      0.63154525	      0.92040360	      0.00257047	    -11.20810086	     14.70044651	     -2.27932893	     -6.56117823	     16.49553130	     -7.95338719	     25.09359966	     19.38927727	     -6.88323634	      3.01496985	    -54.75216704	     18.14940011	     -4.30514068	     26.35708459	    -18.14354481	      7.36023573	     -4.45049583
      1.64000000	      6.78266055	     -8.21043943	      5.97289760	      0.63926834	      0.92052268	      0.00260337	    -12.14010773	     14.62486666	     -1.96867239	     -5.98865410	     16.35464783	     -7.97929046	     25.20331471	     19.59190982	     -6.81070044	      2.73769690	    -52.93534293	     18.12898920	     -4.29433793	     26.24396499	    -18.23207573	      7.23806909	     -4.28247675
      1.64500000	      6.82687808	     -8.15455385	      5.75605597	      0.64696134	      0.92057309	      0.00264270	    -13.04453448	     14.55591315	     -1.67827131	     -5.45742801	     16.22533695	     -7.92362614	     25.36405228	     19.76032294	     -6.76765077	      2.45608943	    -51.03626154	     18.09242820	     -4.27366250	     26.12838367	    -18.32062651	      7.13688524	     -4.08505587
      1.65000000	      6.84878220	     -8.09920554	      5.51525631	      0.65467656	      0.92054222	      0.00272549	    -13.90212737	     14.47257144	     -1.44910913	     -4.97354112	     16.11340136	     -7.81156602	     25.55198554	     19.90381513	     -6.74300250	      2.13160988	    -49.05016527	     18.01870831	     -4.22919490	     26.02113002	    -18.38434212	      7.02509174	     -3.86826971
      1.65500000	      6.90777205	     -8.07354105	      5.27713466	      0.66237692	      0.92048861	      0.00280807	    -14.78483515	     14.41369551	     -1.25679461	     -4.50689116	     15.96538711	     -7.62438307	     25.84882259	     19.97097195	     -6.76158284	      1.79897388	    -46.98808575	     17.94977940	     -4.17639521	     25.90280237	    -18.49094276	      6.94838068	     -3.64685037
      1.66000000	      6.94890577	     -8.04155834	      5.01908189	      0.67008603	      0.92036364	      0.00290925	    -15.61570977	     14.33329803	     -1.12215446	     -4.10607096	     15.83624360	     -7.39529965	     26.23319429	     20.00535513	     -6.78327937	      1.43364641	    -44.84008853	     17.82772896	     -4.07970681	     25.79024054	    -18.57968160	      6.85774964	     -3.39411531
      1.66500000	      6.93382321	     -8.02276682	      4.71801241	      0.67781635	      0.92009765	      0.00307032	    -16.36675056	     14.24615107	     -0.97707456	     -3.75153688	     15.80688736	     -7.10935775	     26.51185470	     20.05545611	     -6.83134232	      1.01825110	    -42.62928835	     17.67335251	     -3.96041180	     25.71996362	    -18.60659192	      6.76397831	     -3.07374989
